solid OpenSCAD_Model
  facet normal -1 0 0
    outer loop
      vertex 0 0 0
      vertex 0 150 1
      vertex 0 150 0
    endloop
  endfacet
  facet normal -1 -0 0
    outer loop
      vertex 0 150 1
      vertex 0 0 0
      vertex 0 0 1
    endloop
  endfacet
  facet normal 0 0 1
    outer loop
      vertex 210 150 1
      vertex 192 94 1
      vertex 210 0 1
    endloop
  endfacet
  facet normal -0 0 1
    outer loop
      vertex 0 150 1
      vertex 192 94 1
      vertex 210 150 1
    endloop
  endfacet
  facet normal 0 0 1
    outer loop
      vertex 0 0 1
      vertex 10 94 1
      vertex 0 150 1
    endloop
  endfacet
  facet normal 0 0 1
    outer loop
      vertex 192 94 1
      vertex 0 150 1
      vertex 10 94 1
    endloop
  endfacet
  facet normal -0 0 1
    outer loop
      vertex 192 42 1
      vertex 210 0 1
      vertex 192 94 1
    endloop
  endfacet
  facet normal 0 0 1
    outer loop
      vertex 0 0 1
      vertex 192 42 1
      vertex 10 42 1
    endloop
  endfacet
  facet normal 0 0 1
    outer loop
      vertex 192 42 1
      vertex 0 0 1
      vertex 210 0 1
    endloop
  endfacet
  facet normal 0 0 1
    outer loop
      vertex 10 94 1
      vertex 0 0 1
      vertex 10 42 1
    endloop
  endfacet
  facet normal 1 -0 0
    outer loop
      vertex 210 0 1
      vertex 210 150 0
      vertex 210 150 1
    endloop
  endfacet
  facet normal 1 0 0
    outer loop
      vertex 210 150 0
      vertex 210 0 1
      vertex 210 0 0
    endloop
  endfacet
  facet normal 0 1 -0
    outer loop
      vertex 210 150 0
      vertex 0 150 1
      vertex 210 150 1
    endloop
  endfacet
  facet normal 0 1 0
    outer loop
      vertex 0 150 1
      vertex 210 150 0
      vertex 0 150 0
    endloop
  endfacet
  facet normal 0 0 -1
    outer loop
      vertex 192 94 0
      vertex 210 0 0
      vertex 192 42 0
    endloop
  endfacet
  facet normal 0 0 -1
    outer loop
      vertex 0 0 0
      vertex 192 42 0
      vertex 210 0 0
    endloop
  endfacet
  facet normal -0 0 -1
    outer loop
      vertex 10 42 0
      vertex 0 0 0
      vertex 10 94 0
    endloop
  endfacet
  facet normal -0 0 -1
    outer loop
      vertex 192 42 0
      vertex 0 0 0
      vertex 10 42 0
    endloop
  endfacet
  facet normal 0 0 -1
    outer loop
      vertex 210 0 0
      vertex 192 94 0
      vertex 210 150 0
    endloop
  endfacet
  facet normal 0 0 -1
    outer loop
      vertex 0 150 0
      vertex 192 94 0
      vertex 10 94 0
    endloop
  endfacet
  facet normal 0 0 -1
    outer loop
      vertex 192 94 0
      vertex 0 150 0
      vertex 210 150 0
    endloop
  endfacet
  facet normal 0 0 -1
    outer loop
      vertex 0 150 0
      vertex 10 94 0
      vertex 0 0 0
    endloop
  endfacet
  facet normal 0 -1 0
    outer loop
      vertex 0 0 0
      vertex 210 0 1
      vertex 0 0 1
    endloop
  endfacet
  facet normal 0 -1 -0
    outer loop
      vertex 210 0 1
      vertex 0 0 0
      vertex 210 0 0
    endloop
  endfacet
  facet normal 1 -0 0
    outer loop
      vertex 10 42 1
      vertex 10 94 0
      vertex 10 94 1
    endloop
  endfacet
  facet normal 1 0 0
    outer loop
      vertex 10 94 0
      vertex 10 42 1
      vertex 10 42 0
    endloop
  endfacet
  facet normal -1 0 0
    outer loop
      vertex 192 42 0
      vertex 192 94 1
      vertex 192 94 0
    endloop
  endfacet
  facet normal -1 -0 0
    outer loop
      vertex 192 94 1
      vertex 192 42 0
      vertex 192 42 1
    endloop
  endfacet
  facet normal 0 -1 0
    outer loop
      vertex 10 94 0
      vertex 192 94 1
      vertex 10 94 1
    endloop
  endfacet
  facet normal 0 -1 -0
    outer loop
      vertex 192 94 1
      vertex 10 94 0
      vertex 192 94 0
    endloop
  endfacet
  facet normal 0 1 -0
    outer loop
      vertex 192 42 0
      vertex 10 42 1
      vertex 192 42 1
    endloop
  endfacet
  facet normal 0 1 0
    outer loop
      vertex 10 42 1
      vertex 192 42 0
      vertex 10 42 0
    endloop
  endfacet
endsolid OpenSCAD_Model
