solid OpenSCAD_Model
  facet normal -1 0 0
    outer loop
      vertex -6.5 -35 -0.5
      vertex -6.5 -6.5 0.5
      vertex -6.5 -6.5 -0.5
    endloop
  endfacet
  facet normal -1 -0 0
    outer loop
      vertex -6.5 -6.5 0.5
      vertex -6.5 -35 -0.5
      vertex -6.5 -35 0.5
    endloop
  endfacet
  facet normal -1 0 0
    outer loop
      vertex -6.5 6.5 -0.5
      vertex -6.5 35 0.5
      vertex -6.5 35 -0.5
    endloop
  endfacet
  facet normal -1 -0 0
    outer loop
      vertex -6.5 35 0.5
      vertex -6.5 6.5 -0.5
      vertex -6.5 6.5 0.5
    endloop
  endfacet
  facet normal 0 0 1
    outer loop
      vertex -35 6.5 0.5
      vertex -6.5 -6.5 0.5
      vertex -6.5 6.5 0.5
    endloop
  endfacet
  facet normal 0 0 1
    outer loop
      vertex -6.5 -6.5 0.5
      vertex -35 6.5 0.5
      vertex -35 -6.5 0.5
    endloop
  endfacet
  facet normal 0 0 1
    outer loop
      vertex -6.5 6.5 0.5
      vertex 6.5 6.5 0.5
      vertex 6.5 35 0.5
    endloop
  endfacet
  facet normal 0 -0 1
    outer loop
      vertex 4.46452 0.563999 0.5
      vertex 6.5 6.5 0.5
      vertex 4.35862 1.1191 0.5
    endloop
  endfacet
  facet normal -0 0 1
    outer loop
      vertex 4.46452 -0.563999 0.5
      vertex 6.5 -6.5 0.5
      vertex 4.5 0 0.5
    endloop
  endfacet
  facet normal 0 0 1
    outer loop
      vertex 6.5 6.5 0.5
      vertex 4.5 0 0.5
      vertex 6.5 -6.5 0.5
    endloop
  endfacet
  facet normal 0 -0 1
    outer loop
      vertex 4.5 0 0.5
      vertex 6.5 6.5 0.5
      vertex 4.46452 0.563999 0.5
    endloop
  endfacet
  facet normal 0 0 1
    outer loop
      vertex 6.5 6.5 0.5
      vertex 4.18399 1.65656 0.5
      vertex 4.35862 1.1191 0.5
    endloop
  endfacet
  facet normal 0 0 1
    outer loop
      vertex 6.5 6.5 0.5
      vertex 3.94338 2.16789 0.5
      vertex 4.18399 1.65656 0.5
    endloop
  endfacet
  facet normal 0 0 1
    outer loop
      vertex 6.5 6.5 0.5
      vertex 3.64058 2.64503 0.5
      vertex 3.94338 2.16789 0.5
    endloop
  endfacet
  facet normal 0 0 1
    outer loop
      vertex 6.5 6.5 0.5
      vertex 3.28036 3.08046 0.5
      vertex 3.64058 2.64503 0.5
    endloop
  endfacet
  facet normal 0 0 1
    outer loop
      vertex 6.5 6.5 0.5
      vertex 2.86841 3.46731 0.5
      vertex 3.28036 3.08046 0.5
    endloop
  endfacet
  facet normal 0 0 1
    outer loop
      vertex 6.5 6.5 0.5
      vertex 2.41122 3.79947 0.5
      vertex 2.86841 3.46731 0.5
    endloop
  endfacet
  facet normal 0 0 1
    outer loop
      vertex 6.5 6.5 0.5
      vertex 1.91601 4.07172 0.5
      vertex 2.41122 3.79947 0.5
    endloop
  endfacet
  facet normal 0 0 1
    outer loop
      vertex 6.5 6.5 0.5
      vertex 1.39058 4.27975 0.5
      vertex 1.91601 4.07172 0.5
    endloop
  endfacet
  facet normal 0 0 1
    outer loop
      vertex 6.5 6.5 0.5
      vertex 0.843215 4.42029 0.5
      vertex 1.39058 4.27975 0.5
    endloop
  endfacet
  facet normal 0 0 1
    outer loop
      vertex 6.5 6.5 0.5
      vertex 0.282557 4.49112 0.5
      vertex 0.843215 4.42029 0.5
    endloop
  endfacet
  facet normal 0 0 1
    outer loop
      vertex 6.5 6.5 0.5
      vertex -6.5 6.5 0.5
      vertex 0.282557 4.49112 0.5
    endloop
  endfacet
  facet normal 0 0 1
    outer loop
      vertex 0.282557 4.49112 0.5
      vertex -6.5 6.5 0.5
      vertex -0.282557 4.49112 0.5
    endloop
  endfacet
  facet normal 0 0 1
    outer loop
      vertex -0.282557 4.49112 0.5
      vertex -6.5 6.5 0.5
      vertex -0.843215 4.42029 0.5
    endloop
  endfacet
  facet normal 0 0 1
    outer loop
      vertex -0.843215 4.42029 0.5
      vertex -6.5 6.5 0.5
      vertex -1.39058 4.27975 0.5
    endloop
  endfacet
  facet normal 0 0 1
    outer loop
      vertex -1.39058 4.27975 0.5
      vertex -6.5 6.5 0.5
      vertex -1.91601 4.07172 0.5
    endloop
  endfacet
  facet normal 0 0 1
    outer loop
      vertex -1.91601 4.07172 0.5
      vertex -6.5 6.5 0.5
      vertex -2.41122 3.79947 0.5
    endloop
  endfacet
  facet normal 0 0 1
    outer loop
      vertex -2.41122 3.79947 0.5
      vertex -6.5 6.5 0.5
      vertex -2.86841 3.46731 0.5
    endloop
  endfacet
  facet normal 0 0 1
    outer loop
      vertex -2.86841 3.46731 0.5
      vertex -6.5 6.5 0.5
      vertex -3.28036 3.08046 0.5
    endloop
  endfacet
  facet normal 0 0 1
    outer loop
      vertex -3.28036 3.08046 0.5
      vertex -6.5 6.5 0.5
      vertex -3.64058 2.64503 0.5
    endloop
  endfacet
  facet normal 0 0 1
    outer loop
      vertex -3.64058 2.64503 0.5
      vertex -6.5 6.5 0.5
      vertex -3.94338 2.16789 0.5
    endloop
  endfacet
  facet normal 0 0 1
    outer loop
      vertex -3.94338 2.16789 0.5
      vertex -6.5 6.5 0.5
      vertex -4.18399 1.65656 0.5
    endloop
  endfacet
  facet normal 0 0 1
    outer loop
      vertex -4.35862 1.1191 0.5
      vertex -6.5 6.5 0.5
      vertex -4.46452 0.563999 0.5
    endloop
  endfacet
  facet normal 0 0 1
    outer loop
      vertex -4.18399 1.65656 0.5
      vertex -6.5 6.5 0.5
      vertex -4.35862 1.1191 0.5
    endloop
  endfacet
  facet normal 0 0 1
    outer loop
      vertex -6.5 6.5 0.5
      vertex 6.5 35 0.5
      vertex -6.5 35 0.5
    endloop
  endfacet
  facet normal 0 0 1
    outer loop
      vertex 6.5 6.5 0.5
      vertex 35 -6.5 0.5
      vertex 35 6.5 0.5
    endloop
  endfacet
  facet normal 0 0 1
    outer loop
      vertex 35 -6.5 0.5
      vertex 6.5 6.5 0.5
      vertex 6.5 -6.5 0.5
    endloop
  endfacet
  facet normal -0 0 1
    outer loop
      vertex 4.35862 -1.1191 0.5
      vertex 6.5 -6.5 0.5
      vertex 4.46452 -0.563999 0.5
    endloop
  endfacet
  facet normal -0 0 1
    outer loop
      vertex 4.18399 -1.65656 0.5
      vertex 6.5 -6.5 0.5
      vertex 4.35862 -1.1191 0.5
    endloop
  endfacet
  facet normal -0 0 1
    outer loop
      vertex 3.94338 -2.16789 0.5
      vertex 6.5 -6.5 0.5
      vertex 4.18399 -1.65656 0.5
    endloop
  endfacet
  facet normal -0 0 1
    outer loop
      vertex 3.64058 -2.64503 0.5
      vertex 6.5 -6.5 0.5
      vertex 3.94338 -2.16789 0.5
    endloop
  endfacet
  facet normal -0 0 1
    outer loop
      vertex 3.28036 -3.08046 0.5
      vertex 6.5 -6.5 0.5
      vertex 3.64058 -2.64503 0.5
    endloop
  endfacet
  facet normal -0 0 1
    outer loop
      vertex 2.86841 -3.46731 0.5
      vertex 6.5 -6.5 0.5
      vertex 3.28036 -3.08046 0.5
    endloop
  endfacet
  facet normal -0 0 1
    outer loop
      vertex 2.41122 -3.79947 0.5
      vertex 6.5 -6.5 0.5
      vertex 2.86841 -3.46731 0.5
    endloop
  endfacet
  facet normal -0 0 1
    outer loop
      vertex 1.91601 -4.07172 0.5
      vertex 6.5 -6.5 0.5
      vertex 2.41122 -3.79947 0.5
    endloop
  endfacet
  facet normal -0 0 1
    outer loop
      vertex 1.39058 -4.27975 0.5
      vertex 6.5 -6.5 0.5
      vertex 1.91601 -4.07172 0.5
    endloop
  endfacet
  facet normal -0 0 1
    outer loop
      vertex 0.843215 -4.42029 0.5
      vertex 6.5 -6.5 0.5
      vertex 1.39058 -4.27975 0.5
    endloop
  endfacet
  facet normal -0 0 1
    outer loop
      vertex 0.282557 -4.49112 0.5
      vertex 6.5 -6.5 0.5
      vertex 0.843215 -4.42029 0.5
    endloop
  endfacet
  facet normal 0 0 1
    outer loop
      vertex -6.5 -6.5 0.5
      vertex 6.5 -6.5 0.5
      vertex 0.282557 -4.49112 0.5
    endloop
  endfacet
  facet normal 0 0 1
    outer loop
      vertex -6.5 -6.5 0.5
      vertex 0.282557 -4.49112 0.5
      vertex -0.282557 -4.49112 0.5
    endloop
  endfacet
  facet normal 0 0 1
    outer loop
      vertex -6.5 -6.5 0.5
      vertex -0.282557 -4.49112 0.5
      vertex -0.843215 -4.42029 0.5
    endloop
  endfacet
  facet normal 0 0 1
    outer loop
      vertex -6.5 -6.5 0.5
      vertex -0.843215 -4.42029 0.5
      vertex -1.39058 -4.27975 0.5
    endloop
  endfacet
  facet normal 0 0 1
    outer loop
      vertex -6.5 -6.5 0.5
      vertex -1.39058 -4.27975 0.5
      vertex -1.91601 -4.07172 0.5
    endloop
  endfacet
  facet normal 0 0 1
    outer loop
      vertex -6.5 -6.5 0.5
      vertex -1.91601 -4.07172 0.5
      vertex -2.41122 -3.79947 0.5
    endloop
  endfacet
  facet normal 0 0 1
    outer loop
      vertex -6.5 -6.5 0.5
      vertex -2.41122 -3.79947 0.5
      vertex -2.86841 -3.46731 0.5
    endloop
  endfacet
  facet normal 0 0 1
    outer loop
      vertex -6.5 -6.5 0.5
      vertex -2.86841 -3.46731 0.5
      vertex -3.28036 -3.08046 0.5
    endloop
  endfacet
  facet normal 0 0 1
    outer loop
      vertex -6.5 -6.5 0.5
      vertex -3.28036 -3.08046 0.5
      vertex -3.64058 -2.64503 0.5
    endloop
  endfacet
  facet normal 0 0 1
    outer loop
      vertex -6.5 -6.5 0.5
      vertex -3.64058 -2.64503 0.5
      vertex -3.94338 -2.16789 0.5
    endloop
  endfacet
  facet normal 0 0 1
    outer loop
      vertex -6.5 -6.5 0.5
      vertex -3.94338 -2.16789 0.5
      vertex -4.18399 -1.65656 0.5
    endloop
  endfacet
  facet normal 0 0 1
    outer loop
      vertex -6.5 -6.5 0.5
      vertex -4.18399 -1.65656 0.5
      vertex -4.35862 -1.1191 0.5
    endloop
  endfacet
  facet normal 0 0 1
    outer loop
      vertex -4.46452 0.563999 0.5
      vertex -6.5 6.5 0.5
      vertex -4.5 0 0.5
    endloop
  endfacet
  facet normal 0 0 1
    outer loop
      vertex -6.5 -6.5 0.5
      vertex -4.5 0 0.5
      vertex -6.5 6.5 0.5
    endloop
  endfacet
  facet normal 0 0 1
    outer loop
      vertex -4.5 0 0.5
      vertex -6.5 -6.5 0.5
      vertex -4.46452 -0.563999 0.5
    endloop
  endfacet
  facet normal 0 0 1
    outer loop
      vertex -4.46452 -0.563999 0.5
      vertex -6.5 -6.5 0.5
      vertex -4.35862 -1.1191 0.5
    endloop
  endfacet
  facet normal 0 0 1
    outer loop
      vertex 6.5 -6.5 0.5
      vertex -6.5 -6.5 0.5
      vertex 6.5 -35 0.5
    endloop
  endfacet
  facet normal 0 0 1
    outer loop
      vertex 6.5 -35 0.5
      vertex -6.5 -6.5 0.5
      vertex -6.5 -35 0.5
    endloop
  endfacet
  facet normal 1 -0 0
    outer loop
      vertex 6.5 -35 0.5
      vertex 6.5 -6.5 -0.5
      vertex 6.5 -6.5 0.5
    endloop
  endfacet
  facet normal 1 0 0
    outer loop
      vertex 6.5 -6.5 -0.5
      vertex 6.5 -35 0.5
      vertex 6.5 -35 -0.5
    endloop
  endfacet
  facet normal 1 -0 0
    outer loop
      vertex 6.5 6.5 0.5
      vertex 6.5 35 -0.5
      vertex 6.5 35 0.5
    endloop
  endfacet
  facet normal 1 0 0
    outer loop
      vertex 6.5 35 -0.5
      vertex 6.5 6.5 0.5
      vertex 6.5 6.5 -0.5
    endloop
  endfacet
  facet normal 0 0 -1
    outer loop
      vertex -35 -6.5 -0.5
      vertex -6.5 6.5 -0.5
      vertex -6.5 -6.5 -0.5
    endloop
  endfacet
  facet normal -0 0 -1
    outer loop
      vertex -6.5 6.5 -0.5
      vertex -35 -6.5 -0.5
      vertex -35 6.5 -0.5
    endloop
  endfacet
  facet normal 0 0 -1
    outer loop
      vertex -6.5 -6.5 -0.5
      vertex 6.5 -6.5 -0.5
      vertex 6.5 -35 -0.5
    endloop
  endfacet
  facet normal 0 0 -1
    outer loop
      vertex 6.5 -6.5 -0.5
      vertex -6.5 -6.5 -0.5
      vertex 6.5 6.5 -0.5
    endloop
  endfacet
  facet normal 0 0 -1
    outer loop
      vertex -6.5 -6.5 -0.5
      vertex 6.5 -35 -0.5
      vertex -6.5 -35 -0.5
    endloop
  endfacet
  facet normal 0 0 -1
    outer loop
      vertex -6.5 6.5 -0.5
      vertex 6.5 6.5 -0.5
      vertex -6.5 -6.5 -0.5
    endloop
  endfacet
  facet normal 0 0 -1
    outer loop
      vertex 6.5 6.5 -0.5
      vertex -6.5 6.5 -0.5
      vertex 6.5 35 -0.5
    endloop
  endfacet
  facet normal -0 0 -1
    outer loop
      vertex 6.5 35 -0.5
      vertex -6.5 6.5 -0.5
      vertex -6.5 35 -0.5
    endloop
  endfacet
  facet normal 0 0 -1
    outer loop
      vertex 6.5 -6.5 -0.5
      vertex 35 6.5 -0.5
      vertex 35 -6.5 -0.5
    endloop
  endfacet
  facet normal -0 0 -1
    outer loop
      vertex 35 6.5 -0.5
      vertex 6.5 -6.5 -0.5
      vertex 6.5 6.5 -0.5
    endloop
  endfacet
  facet normal 0 -1 0
    outer loop
      vertex -6.5 -35 -0.5
      vertex 6.5 -35 0.5
      vertex -6.5 -35 0.5
    endloop
  endfacet
  facet normal 0 -1 -0
    outer loop
      vertex 6.5 -35 0.5
      vertex -6.5 -35 -0.5
      vertex 6.5 -35 -0.5
    endloop
  endfacet
  facet normal 0 1 -0
    outer loop
      vertex 6.5 35 -0.5
      vertex -6.5 35 0.5
      vertex 6.5 35 0.5
    endloop
  endfacet
  facet normal 0 1 0
    outer loop
      vertex -6.5 35 0.5
      vertex 6.5 35 -0.5
      vertex -6.5 35 -0.5
    endloop
  endfacet
  facet normal 1.67311e-008 1 -0
    outer loop
      vertex 35 6.5 -0.5
      vertex 6.5 6.5 0.5
      vertex 35 6.5 0.5
    endloop
  endfacet
  facet normal 1.67311e-008 1 0
    outer loop
      vertex 6.5 6.5 0.5
      vertex 35 6.5 -0.5
      vertex 6.5 6.5 -0.5
    endloop
  endfacet
  facet normal 1.67311e-008 1 -0
    outer loop
      vertex -6.5 6.5 -0.5
      vertex -35 6.5 0.5
      vertex -6.5 6.5 0.5
    endloop
  endfacet
  facet normal 1.67311e-008 1 0
    outer loop
      vertex -35 6.5 0.5
      vertex -6.5 6.5 -0.5
      vertex -35 6.5 -0.5
    endloop
  endfacet
  facet normal -1 0 0
    outer loop
      vertex -35 -6.5 -0.5
      vertex -35 6.5 0.5
      vertex -35 6.5 -0.5
    endloop
  endfacet
  facet normal -1 -0 0
    outer loop
      vertex -35 6.5 0.5
      vertex -35 -6.5 -0.5
      vertex -35 -6.5 0.5
    endloop
  endfacet
  facet normal -1.67311e-008 -1 0
    outer loop
      vertex 6.5 -6.5 -0.5
      vertex 35 -6.5 0.5
      vertex 6.5 -6.5 0.5
    endloop
  endfacet
  facet normal -1.67311e-008 -1 -0
    outer loop
      vertex 35 -6.5 0.5
      vertex 6.5 -6.5 -0.5
      vertex 35 -6.5 -0.5
    endloop
  endfacet
  facet normal -1.67311e-008 -1 0
    outer loop
      vertex -35 -6.5 -0.5
      vertex -6.5 -6.5 0.5
      vertex -35 -6.5 0.5
    endloop
  endfacet
  facet normal -1.67311e-008 -1 -0
    outer loop
      vertex -6.5 -6.5 0.5
      vertex -35 -6.5 -0.5
      vertex -6.5 -6.5 -0.5
    endloop
  endfacet
  facet normal 1 -0 0
    outer loop
      vertex 35 -6.5 0.5
      vertex 35 6.5 -0.5
      vertex 35 6.5 0.5
    endloop
  endfacet
  facet normal 1 0 0
    outer loop
      vertex 35 6.5 -0.5
      vertex 35 -6.5 0.5
      vertex 35 -6.5 -0.5
    endloop
  endfacet
  facet normal 0.998027 0.0627914 0
    outer loop
      vertex 4.5 0 6.5
      vertex 4.46452 0.563999 0.5
      vertex 4.46452 0.563999 6.5
    endloop
  endfacet
  facet normal 0.998027 0.0627914 0
    outer loop
      vertex 4.46452 0.563999 0.5
      vertex 4.5 0 6.5
      vertex 4.5 0 0.5
    endloop
  endfacet
  facet normal -0.998027 0.0627914 0
    outer loop
      vertex -4.5 0 0.5
      vertex -4.46452 0.563999 6.5
      vertex -4.46452 0.563999 0.5
    endloop
  endfacet
  facet normal -0.998027 0.0627914 0
    outer loop
      vertex -4.46452 0.563999 6.5
      vertex -4.5 0 0.5
      vertex -4.5 0 6.5
    endloop
  endfacet
  facet normal 0 1 -0
    outer loop
      vertex 0.282557 4.49112 0.5
      vertex -0.282557 4.49112 6.5
      vertex 0.282557 4.49112 6.5
    endloop
  endfacet
  facet normal 0 1 0
    outer loop
      vertex -0.282557 4.49112 6.5
      vertex 0.282557 4.49112 0.5
      vertex -0.282557 4.49112 0.5
    endloop
  endfacet
  facet normal 0.684547 0.728969 -0
    outer loop
      vertex 3.28036 3.08046 0.5
      vertex 2.86841 3.46731 6.5
      vertex 3.28036 3.08046 6.5
    endloop
  endfacet
  facet normal 0.684547 0.728969 0
    outer loop
      vertex 2.86841 3.46731 6.5
      vertex 3.28036 3.08046 0.5
      vertex 2.86841 3.46731 0.5
    endloop
  endfacet
  facet normal -0.684547 0.728969 0
    outer loop
      vertex -2.86841 3.46731 0.5
      vertex -3.28036 3.08046 6.5
      vertex -2.86841 3.46731 6.5
    endloop
  endfacet
  facet normal -0.684547 0.728969 0
    outer loop
      vertex -3.28036 3.08046 6.5
      vertex -2.86841 3.46731 0.5
      vertex -3.28036 3.08046 0.5
    endloop
  endfacet
  facet normal -0.368125 0.929776 0
    outer loop
      vertex -1.39058 4.27975 0.5
      vertex -1.91601 4.07172 6.5
      vertex -1.39058 4.27975 6.5
    endloop
  endfacet
  facet normal -0.368125 0.929776 0
    outer loop
      vertex -1.91601 4.07172 6.5
      vertex -1.39058 4.27975 0.5
      vertex -1.91601 4.07172 0.5
    endloop
  endfacet
  facet normal 0.904827 0.425779 0
    outer loop
      vertex 4.18399 1.65656 6.5
      vertex 3.94338 2.16789 0.5
      vertex 3.94338 2.16789 6.5
    endloop
  endfacet
  facet normal 0.904827 0.425779 0
    outer loop
      vertex 3.94338 2.16789 0.5
      vertex 4.18399 1.65656 6.5
      vertex 4.18399 1.65656 0.5
    endloop
  endfacet
  facet normal 0.982287 0.187382 0
    outer loop
      vertex 4.46452 0.563999 6.5
      vertex 4.35862 1.1191 0.5
      vertex 4.35862 1.1191 6.5
    endloop
  endfacet
  facet normal 0.982287 0.187382 0
    outer loop
      vertex 4.35862 1.1191 0.5
      vertex 4.46452 0.563999 6.5
      vertex 4.46452 0.563999 0.5
    endloop
  endfacet
  facet normal 0.368125 0.929776 -0
    outer loop
      vertex 1.91601 4.07172 0.5
      vertex 1.39058 4.27975 6.5
      vertex 1.91601 4.07172 6.5
    endloop
  endfacet
  facet normal 0.368125 0.929776 0
    outer loop
      vertex 1.39058 4.27975 6.5
      vertex 1.91601 4.07172 0.5
      vertex 1.39058 4.27975 0.5
    endloop
  endfacet
  facet normal 0.248689 0.968583 -0
    outer loop
      vertex 1.39058 4.27975 0.5
      vertex 0.843215 4.42029 6.5
      vertex 1.39058 4.27975 6.5
    endloop
  endfacet
  facet normal 0.248689 0.968583 0
    outer loop
      vertex 0.843215 4.42029 6.5
      vertex 1.39058 4.27975 0.5
      vertex 0.843215 4.42029 0.5
    endloop
  endfacet
  facet normal 0.587785 0.809017 -0
    outer loop
      vertex 2.86841 3.46731 0.5
      vertex 2.41122 3.79947 6.5
      vertex 2.86841 3.46731 6.5
    endloop
  endfacet
  facet normal 0.587785 0.809017 0
    outer loop
      vertex 2.41122 3.79947 6.5
      vertex 2.86841 3.46731 0.5
      vertex 2.41122 3.79947 0.5
    endloop
  endfacet
  facet normal -0.904827 0.425779 0
    outer loop
      vertex -4.18399 1.65656 0.5
      vertex -3.94338 2.16789 6.5
      vertex -3.94338 2.16789 0.5
    endloop
  endfacet
  facet normal -0.904827 0.425779 0
    outer loop
      vertex -3.94338 2.16789 6.5
      vertex -4.18399 1.65656 0.5
      vertex -4.18399 1.65656 6.5
    endloop
  endfacet
  facet normal -0.844328 0.535827 0
    outer loop
      vertex -3.94338 2.16789 0.5
      vertex -3.64058 2.64503 6.5
      vertex -3.64058 2.64503 0.5
    endloop
  endfacet
  facet normal -0.844328 0.535827 0
    outer loop
      vertex -3.64058 2.64503 6.5
      vertex -3.94338 2.16789 0.5
      vertex -3.94338 2.16789 6.5
    endloop
  endfacet
  facet normal -0.951056 0.309017 0
    outer loop
      vertex -4.35862 1.1191 0.5
      vertex -4.18399 1.65656 6.5
      vertex -4.18399 1.65656 0.5
    endloop
  endfacet
  facet normal -0.951056 0.309017 0
    outer loop
      vertex -4.18399 1.65656 6.5
      vertex -4.35862 1.1191 0.5
      vertex -4.35862 1.1191 6.5
    endloop
  endfacet
  facet normal -0.481754 0.876307 0
    outer loop
      vertex -1.91601 4.07172 0.5
      vertex -2.41122 3.79947 6.5
      vertex -1.91601 4.07172 6.5
    endloop
  endfacet
  facet normal -0.481754 0.876307 0
    outer loop
      vertex -2.41122 3.79947 6.5
      vertex -1.91601 4.07172 0.5
      vertex -2.41122 3.79947 0.5
    endloop
  endfacet
  facet normal -0.125333 0.992115 0
    outer loop
      vertex -0.282557 4.49112 0.5
      vertex -0.843215 4.42029 6.5
      vertex -0.282557 4.49112 6.5
    endloop
  endfacet
  facet normal -0.125333 0.992115 0
    outer loop
      vertex -0.843215 4.42029 6.5
      vertex -0.282557 4.49112 0.5
      vertex -0.843215 4.42029 0.5
    endloop
  endfacet
  facet normal 0.844328 -0.535827 0
    outer loop
      vertex 3.64058 -2.64503 6.5
      vertex 3.94338 -2.16789 0.5
      vertex 3.94338 -2.16789 6.5
    endloop
  endfacet
  facet normal 0.844328 -0.535827 0
    outer loop
      vertex 3.94338 -2.16789 0.5
      vertex 3.64058 -2.64503 6.5
      vertex 3.64058 -2.64503 0.5
    endloop
  endfacet
  facet normal 0.998027 -0.0627914 0
    outer loop
      vertex 4.46452 -0.563999 6.5
      vertex 4.5 0 0.5
      vertex 4.5 0 6.5
    endloop
  endfacet
  facet normal 0.998027 -0.0627914 0
    outer loop
      vertex 4.5 0 0.5
      vertex 4.46452 -0.563999 6.5
      vertex 4.46452 -0.563999 0.5
    endloop
  endfacet
  facet normal 0.951056 0.309017 0
    outer loop
      vertex 4.35862 1.1191 6.5
      vertex 4.18399 1.65656 0.5
      vertex 4.18399 1.65656 6.5
    endloop
  endfacet
  facet normal 0.951056 0.309017 0
    outer loop
      vertex 4.18399 1.65656 0.5
      vertex 4.35862 1.1191 6.5
      vertex 4.35862 1.1191 0.5
    endloop
  endfacet
  facet normal 0.770513 0.637424 0
    outer loop
      vertex 3.64058 2.64503 6.5
      vertex 3.28036 3.08046 0.5
      vertex 3.28036 3.08046 6.5
    endloop
  endfacet
  facet normal 0.770513 0.637424 0
    outer loop
      vertex 3.28036 3.08046 0.5
      vertex 3.64058 2.64503 6.5
      vertex 3.64058 2.64503 0.5
    endloop
  endfacet
  facet normal 0.844328 0.535827 0
    outer loop
      vertex 3.94338 2.16789 6.5
      vertex 3.64058 2.64503 0.5
      vertex 3.64058 2.64503 6.5
    endloop
  endfacet
  facet normal 0.844328 0.535827 0
    outer loop
      vertex 3.64058 2.64503 0.5
      vertex 3.94338 2.16789 6.5
      vertex 3.94338 2.16789 0.5
    endloop
  endfacet
  facet normal 0.125333 0.992115 -0
    outer loop
      vertex 0.843215 4.42029 0.5
      vertex 0.282557 4.49112 6.5
      vertex 0.843215 4.42029 6.5
    endloop
  endfacet
  facet normal 0.125333 0.992115 0
    outer loop
      vertex 0.282557 4.49112 6.5
      vertex 0.843215 4.42029 0.5
      vertex 0.282557 4.49112 0.5
    endloop
  endfacet
  facet normal -0.770513 0.637424 0
    outer loop
      vertex -3.64058 2.64503 0.5
      vertex -3.28036 3.08046 6.5
      vertex -3.28036 3.08046 0.5
    endloop
  endfacet
  facet normal -0.770513 0.637424 0
    outer loop
      vertex -3.28036 3.08046 6.5
      vertex -3.64058 2.64503 0.5
      vertex -3.64058 2.64503 6.5
    endloop
  endfacet
  facet normal -0.982287 0.187382 0
    outer loop
      vertex -4.46452 0.563999 0.5
      vertex -4.35862 1.1191 6.5
      vertex -4.35862 1.1191 0.5
    endloop
  endfacet
  facet normal -0.982287 0.187382 0
    outer loop
      vertex -4.35862 1.1191 6.5
      vertex -4.46452 0.563999 0.5
      vertex -4.46452 0.563999 6.5
    endloop
  endfacet
  facet normal -0.248689 0.968583 0
    outer loop
      vertex -0.843215 4.42029 0.5
      vertex -1.39058 4.27975 6.5
      vertex -0.843215 4.42029 6.5
    endloop
  endfacet
  facet normal -0.248689 0.968583 0
    outer loop
      vertex -1.39058 4.27975 6.5
      vertex -0.843215 4.42029 0.5
      vertex -1.39058 4.27975 0.5
    endloop
  endfacet
  facet normal 0.684547 -0.728969 0
    outer loop
      vertex 2.86841 -3.46731 0.5
      vertex 3.28036 -3.08046 6.5
      vertex 2.86841 -3.46731 6.5
    endloop
  endfacet
  facet normal 0.684547 -0.728969 0
    outer loop
      vertex 3.28036 -3.08046 6.5
      vertex 2.86841 -3.46731 0.5
      vertex 3.28036 -3.08046 0.5
    endloop
  endfacet
  facet normal 0.982287 -0.187382 0
    outer loop
      vertex 4.35862 -1.1191 6.5
      vertex 4.46452 -0.563999 0.5
      vertex 4.46452 -0.563999 6.5
    endloop
  endfacet
  facet normal 0.982287 -0.187382 0
    outer loop
      vertex 4.46452 -0.563999 0.5
      vertex 4.35862 -1.1191 6.5
      vertex 4.35862 -1.1191 0.5
    endloop
  endfacet
  facet normal -0.904827 -0.425779 0
    outer loop
      vertex -3.94338 -2.16789 0.5
      vertex -4.18399 -1.65656 6.5
      vertex -4.18399 -1.65656 0.5
    endloop
  endfacet
  facet normal -0.904827 -0.425779 0
    outer loop
      vertex -4.18399 -1.65656 6.5
      vertex -3.94338 -2.16789 0.5
      vertex -3.94338 -2.16789 6.5
    endloop
  endfacet
  facet normal -0.951056 -0.309017 0
    outer loop
      vertex -4.18399 -1.65656 0.5
      vertex -4.35862 -1.1191 6.5
      vertex -4.35862 -1.1191 0.5
    endloop
  endfacet
  facet normal -0.951056 -0.309017 0
    outer loop
      vertex -4.35862 -1.1191 6.5
      vertex -4.18399 -1.65656 0.5
      vertex -4.18399 -1.65656 6.5
    endloop
  endfacet
  facet normal 0.770513 -0.637424 0
    outer loop
      vertex 3.28036 -3.08046 6.5
      vertex 3.64058 -2.64503 0.5
      vertex 3.64058 -2.64503 6.5
    endloop
  endfacet
  facet normal 0.770513 -0.637424 0
    outer loop
      vertex 3.64058 -2.64503 0.5
      vertex 3.28036 -3.08046 6.5
      vertex 3.28036 -3.08046 0.5
    endloop
  endfacet
  facet normal 0.481754 -0.876307 0
    outer loop
      vertex 1.91601 -4.07172 0.5
      vertex 2.41122 -3.79947 6.5
      vertex 1.91601 -4.07172 6.5
    endloop
  endfacet
  facet normal 0.481754 -0.876307 0
    outer loop
      vertex 2.41122 -3.79947 6.5
      vertex 1.91601 -4.07172 0.5
      vertex 2.41122 -3.79947 0.5
    endloop
  endfacet
  facet normal 0.481754 0.876307 -0
    outer loop
      vertex 2.41122 3.79947 0.5
      vertex 1.91601 4.07172 6.5
      vertex 2.41122 3.79947 6.5
    endloop
  endfacet
  facet normal 0.481754 0.876307 0
    outer loop
      vertex 1.91601 4.07172 6.5
      vertex 2.41122 3.79947 0.5
      vertex 1.91601 4.07172 0.5
    endloop
  endfacet
  facet normal 0 0 1
    outer loop
      vertex 4.46452 0.563999 6.5
      vertex 4.46452 -0.563999 6.5
      vertex 4.5 0 6.5
    endloop
  endfacet
  facet normal 0 0 1
    outer loop
      vertex 4.35862 1.1191 6.5
      vertex 4.46452 -0.563999 6.5
      vertex 4.46452 0.563999 6.5
    endloop
  endfacet
  facet normal 0 0 1
    outer loop
      vertex 4.35862 1.1191 6.5
      vertex 4.35862 -1.1191 6.5
      vertex 4.46452 -0.563999 6.5
    endloop
  endfacet
  facet normal 0 0 1
    outer loop
      vertex 4.18399 1.65656 6.5
      vertex 4.35862 -1.1191 6.5
      vertex 4.35862 1.1191 6.5
    endloop
  endfacet
  facet normal 0 0 1
    outer loop
      vertex 4.18399 1.65656 6.5
      vertex 4.18399 -1.65656 6.5
      vertex 4.35862 -1.1191 6.5
    endloop
  endfacet
  facet normal 0 0 1
    outer loop
      vertex 3.94338 2.16789 6.5
      vertex 4.18399 -1.65656 6.5
      vertex 4.18399 1.65656 6.5
    endloop
  endfacet
  facet normal 0 0 1
    outer loop
      vertex 3.94338 2.16789 6.5
      vertex 3.94338 -2.16789 6.5
      vertex 4.18399 -1.65656 6.5
    endloop
  endfacet
  facet normal 0 0 1
    outer loop
      vertex 3.64058 2.64503 6.5
      vertex 3.94338 -2.16789 6.5
      vertex 3.94338 2.16789 6.5
    endloop
  endfacet
  facet normal 0 0 1
    outer loop
      vertex 3.64058 2.64503 6.5
      vertex 3.64058 -2.64503 6.5
      vertex 3.94338 -2.16789 6.5
    endloop
  endfacet
  facet normal 0 0 1
    outer loop
      vertex 3.28036 3.08046 6.5
      vertex 3.64058 -2.64503 6.5
      vertex 3.64058 2.64503 6.5
    endloop
  endfacet
  facet normal 0 0 1
    outer loop
      vertex 3.28036 3.08046 6.5
      vertex 3.28036 -3.08046 6.5
      vertex 3.64058 -2.64503 6.5
    endloop
  endfacet
  facet normal 0 0 1
    outer loop
      vertex 2.86841 3.46731 6.5
      vertex 3.28036 -3.08046 6.5
      vertex 3.28036 3.08046 6.5
    endloop
  endfacet
  facet normal 0 0 1
    outer loop
      vertex 2.86841 3.46731 6.5
      vertex 2.86841 -3.46731 6.5
      vertex 3.28036 -3.08046 6.5
    endloop
  endfacet
  facet normal 0 0 1
    outer loop
      vertex 2.41122 3.79947 6.5
      vertex 2.86841 -3.46731 6.5
      vertex 2.86841 3.46731 6.5
    endloop
  endfacet
  facet normal 0 0 1
    outer loop
      vertex 2.41122 3.79947 6.5
      vertex 2.41122 -3.79947 6.5
      vertex 2.86841 -3.46731 6.5
    endloop
  endfacet
  facet normal 0 0 1
    outer loop
      vertex 1.91601 4.07172 6.5
      vertex 2.41122 -3.79947 6.5
      vertex 2.41122 3.79947 6.5
    endloop
  endfacet
  facet normal 0 0 1
    outer loop
      vertex 1.91601 4.07172 6.5
      vertex 1.91601 -4.07172 6.5
      vertex 2.41122 -3.79947 6.5
    endloop
  endfacet
  facet normal 0 0 1
    outer loop
      vertex 1.39058 4.27975 6.5
      vertex 1.91601 -4.07172 6.5
      vertex 1.91601 4.07172 6.5
    endloop
  endfacet
  facet normal 0 0 1
    outer loop
      vertex 1.39058 4.27975 6.5
      vertex 1.39058 -4.27975 6.5
      vertex 1.91601 -4.07172 6.5
    endloop
  endfacet
  facet normal 0 0 1
    outer loop
      vertex 0.843215 4.42029 6.5
      vertex 1.39058 -4.27975 6.5
      vertex 1.39058 4.27975 6.5
    endloop
  endfacet
  facet normal 0 0 1
    outer loop
      vertex 0.843215 4.42029 6.5
      vertex 0.843215 -4.42029 6.5
      vertex 1.39058 -4.27975 6.5
    endloop
  endfacet
  facet normal 0 0 1
    outer loop
      vertex 0.282557 4.49112 6.5
      vertex 0.843215 -4.42029 6.5
      vertex 0.843215 4.42029 6.5
    endloop
  endfacet
  facet normal 0 0 1
    outer loop
      vertex 0.282557 4.49112 6.5
      vertex 0.282557 -4.49112 6.5
      vertex 0.843215 -4.42029 6.5
    endloop
  endfacet
  facet normal -0 0 1
    outer loop
      vertex -0.282557 4.49112 6.5
      vertex 0.282557 -4.49112 6.5
      vertex 0.282557 4.49112 6.5
    endloop
  endfacet
  facet normal 0 0 1
    outer loop
      vertex -0.282557 4.49112 6.5
      vertex -0.282557 -4.49112 6.5
      vertex 0.282557 -4.49112 6.5
    endloop
  endfacet
  facet normal -0 0 1
    outer loop
      vertex -0.843215 4.42029 6.5
      vertex -0.282557 -4.49112 6.5
      vertex -0.282557 4.49112 6.5
    endloop
  endfacet
  facet normal 0 0 1
    outer loop
      vertex -0.843215 4.42029 6.5
      vertex -0.843215 -4.42029 6.5
      vertex -0.282557 -4.49112 6.5
    endloop
  endfacet
  facet normal -0 0 1
    outer loop
      vertex -1.39058 4.27975 6.5
      vertex -0.843215 -4.42029 6.5
      vertex -0.843215 4.42029 6.5
    endloop
  endfacet
  facet normal 0 0 1
    outer loop
      vertex -1.39058 4.27975 6.5
      vertex -1.39058 -4.27975 6.5
      vertex -0.843215 -4.42029 6.5
    endloop
  endfacet
  facet normal -0 0 1
    outer loop
      vertex -1.91601 4.07172 6.5
      vertex -1.39058 -4.27975 6.5
      vertex -1.39058 4.27975 6.5
    endloop
  endfacet
  facet normal 0 0 1
    outer loop
      vertex -1.91601 4.07172 6.5
      vertex -1.91601 -4.07172 6.5
      vertex -1.39058 -4.27975 6.5
    endloop
  endfacet
  facet normal -0 0 1
    outer loop
      vertex -2.41122 3.79947 6.5
      vertex -1.91601 -4.07172 6.5
      vertex -1.91601 4.07172 6.5
    endloop
  endfacet
  facet normal 0 0 1
    outer loop
      vertex -2.41122 3.79947 6.5
      vertex -2.41122 -3.79947 6.5
      vertex -1.91601 -4.07172 6.5
    endloop
  endfacet
  facet normal -0 0 1
    outer loop
      vertex -2.86841 3.46731 6.5
      vertex -2.41122 -3.79947 6.5
      vertex -2.41122 3.79947 6.5
    endloop
  endfacet
  facet normal 0 0 1
    outer loop
      vertex -2.86841 3.46731 6.5
      vertex -2.86841 -3.46731 6.5
      vertex -2.41122 -3.79947 6.5
    endloop
  endfacet
  facet normal -0 0 1
    outer loop
      vertex -3.28036 3.08046 6.5
      vertex -2.86841 -3.46731 6.5
      vertex -2.86841 3.46731 6.5
    endloop
  endfacet
  facet normal 0 0 1
    outer loop
      vertex -3.28036 3.08046 6.5
      vertex -3.28036 -3.08046 6.5
      vertex -2.86841 -3.46731 6.5
    endloop
  endfacet
  facet normal -0 0 1
    outer loop
      vertex -3.64058 2.64503 6.5
      vertex -3.28036 -3.08046 6.5
      vertex -3.28036 3.08046 6.5
    endloop
  endfacet
  facet normal 0 0 1
    outer loop
      vertex -3.64058 2.64503 6.5
      vertex -3.64058 -2.64503 6.5
      vertex -3.28036 -3.08046 6.5
    endloop
  endfacet
  facet normal -0 0 1
    outer loop
      vertex -3.94338 2.16789 6.5
      vertex -3.64058 -2.64503 6.5
      vertex -3.64058 2.64503 6.5
    endloop
  endfacet
  facet normal 0 0 1
    outer loop
      vertex -3.94338 2.16789 6.5
      vertex -3.94338 -2.16789 6.5
      vertex -3.64058 -2.64503 6.5
    endloop
  endfacet
  facet normal -0 0 1
    outer loop
      vertex -4.18399 1.65656 6.5
      vertex -3.94338 -2.16789 6.5
      vertex -3.94338 2.16789 6.5
    endloop
  endfacet
  facet normal 0 0 1
    outer loop
      vertex -4.18399 1.65656 6.5
      vertex -4.18399 -1.65656 6.5
      vertex -3.94338 -2.16789 6.5
    endloop
  endfacet
  facet normal -0 0 1
    outer loop
      vertex -4.35862 1.1191 6.5
      vertex -4.18399 -1.65656 6.5
      vertex -4.18399 1.65656 6.5
    endloop
  endfacet
  facet normal 0 0 1
    outer loop
      vertex -4.35862 1.1191 6.5
      vertex -4.35862 -1.1191 6.5
      vertex -4.18399 -1.65656 6.5
    endloop
  endfacet
  facet normal -0 0 1
    outer loop
      vertex -4.46452 0.563999 6.5
      vertex -4.35862 -1.1191 6.5
      vertex -4.35862 1.1191 6.5
    endloop
  endfacet
  facet normal 0 0 1
    outer loop
      vertex -4.46452 0.563999 6.5
      vertex -4.46452 -0.563999 6.5
      vertex -4.35862 -1.1191 6.5
    endloop
  endfacet
  facet normal 0 -0 1
    outer loop
      vertex -4.46452 -0.563999 6.5
      vertex -4.46452 0.563999 6.5
      vertex -4.5 0 6.5
    endloop
  endfacet
  facet normal -0.587785 0.809017 0
    outer loop
      vertex -2.41122 3.79947 0.5
      vertex -2.86841 3.46731 6.5
      vertex -2.41122 3.79947 6.5
    endloop
  endfacet
  facet normal -0.587785 0.809017 0
    outer loop
      vertex -2.86841 3.46731 6.5
      vertex -2.41122 3.79947 0.5
      vertex -2.86841 3.46731 0.5
    endloop
  endfacet
  facet normal 0.951056 -0.309017 0
    outer loop
      vertex 4.18399 -1.65656 6.5
      vertex 4.35862 -1.1191 0.5
      vertex 4.35862 -1.1191 6.5
    endloop
  endfacet
  facet normal 0.951056 -0.309017 0
    outer loop
      vertex 4.35862 -1.1191 0.5
      vertex 4.18399 -1.65656 6.5
      vertex 4.18399 -1.65656 0.5
    endloop
  endfacet
  facet normal 0.904827 -0.425779 0
    outer loop
      vertex 3.94338 -2.16789 6.5
      vertex 4.18399 -1.65656 0.5
      vertex 4.18399 -1.65656 6.5
    endloop
  endfacet
  facet normal 0.904827 -0.425779 0
    outer loop
      vertex 4.18399 -1.65656 0.5
      vertex 3.94338 -2.16789 6.5
      vertex 3.94338 -2.16789 0.5
    endloop
  endfacet
  facet normal -0.684547 -0.728969 0
    outer loop
      vertex -3.28036 -3.08046 0.5
      vertex -2.86841 -3.46731 6.5
      vertex -3.28036 -3.08046 6.5
    endloop
  endfacet
  facet normal -0.684547 -0.728969 -0
    outer loop
      vertex -2.86841 -3.46731 6.5
      vertex -3.28036 -3.08046 0.5
      vertex -2.86841 -3.46731 0.5
    endloop
  endfacet
  facet normal -0.998027 -0.0627914 0
    outer loop
      vertex -4.46452 -0.563999 0.5
      vertex -4.5 0 6.5
      vertex -4.5 0 0.5
    endloop
  endfacet
  facet normal -0.998027 -0.0627914 0
    outer loop
      vertex -4.5 0 6.5
      vertex -4.46452 -0.563999 0.5
      vertex -4.46452 -0.563999 6.5
    endloop
  endfacet
  facet normal 0.125333 -0.992115 0
    outer loop
      vertex 0.282557 -4.49112 0.5
      vertex 0.843215 -4.42029 6.5
      vertex 0.282557 -4.49112 6.5
    endloop
  endfacet
  facet normal 0.125333 -0.992115 0
    outer loop
      vertex 0.843215 -4.42029 6.5
      vertex 0.282557 -4.49112 0.5
      vertex 0.843215 -4.42029 0.5
    endloop
  endfacet
  facet normal 0.587785 -0.809017 0
    outer loop
      vertex 2.41122 -3.79947 0.5
      vertex 2.86841 -3.46731 6.5
      vertex 2.41122 -3.79947 6.5
    endloop
  endfacet
  facet normal 0.587785 -0.809017 0
    outer loop
      vertex 2.86841 -3.46731 6.5
      vertex 2.41122 -3.79947 0.5
      vertex 2.86841 -3.46731 0.5
    endloop
  endfacet
  facet normal 0.368125 -0.929776 0
    outer loop
      vertex 1.39058 -4.27975 0.5
      vertex 1.91601 -4.07172 6.5
      vertex 1.39058 -4.27975 6.5
    endloop
  endfacet
  facet normal 0.368125 -0.929776 0
    outer loop
      vertex 1.91601 -4.07172 6.5
      vertex 1.39058 -4.27975 0.5
      vertex 1.91601 -4.07172 0.5
    endloop
  endfacet
  facet normal 0 -1 0
    outer loop
      vertex -0.282557 -4.49112 0.5
      vertex 0.282557 -4.49112 6.5
      vertex -0.282557 -4.49112 6.5
    endloop
  endfacet
  facet normal 0 -1 -0
    outer loop
      vertex 0.282557 -4.49112 6.5
      vertex -0.282557 -4.49112 0.5
      vertex 0.282557 -4.49112 0.5
    endloop
  endfacet
  facet normal -0.125333 -0.992115 0
    outer loop
      vertex -0.843215 -4.42029 0.5
      vertex -0.282557 -4.49112 6.5
      vertex -0.843215 -4.42029 6.5
    endloop
  endfacet
  facet normal -0.125333 -0.992115 -0
    outer loop
      vertex -0.282557 -4.49112 6.5
      vertex -0.843215 -4.42029 0.5
      vertex -0.282557 -4.49112 0.5
    endloop
  endfacet
  facet normal -0.248689 -0.968583 0
    outer loop
      vertex -1.39058 -4.27975 0.5
      vertex -0.843215 -4.42029 6.5
      vertex -1.39058 -4.27975 6.5
    endloop
  endfacet
  facet normal -0.248689 -0.968583 -0
    outer loop
      vertex -0.843215 -4.42029 6.5
      vertex -1.39058 -4.27975 0.5
      vertex -0.843215 -4.42029 0.5
    endloop
  endfacet
  facet normal -0.770513 -0.637424 0
    outer loop
      vertex -3.28036 -3.08046 0.5
      vertex -3.64058 -2.64503 6.5
      vertex -3.64058 -2.64503 0.5
    endloop
  endfacet
  facet normal -0.770513 -0.637424 0
    outer loop
      vertex -3.64058 -2.64503 6.5
      vertex -3.28036 -3.08046 0.5
      vertex -3.28036 -3.08046 6.5
    endloop
  endfacet
  facet normal -0.844328 -0.535827 0
    outer loop
      vertex -3.64058 -2.64503 0.5
      vertex -3.94338 -2.16789 6.5
      vertex -3.94338 -2.16789 0.5
    endloop
  endfacet
  facet normal -0.844328 -0.535827 0
    outer loop
      vertex -3.94338 -2.16789 6.5
      vertex -3.64058 -2.64503 0.5
      vertex -3.64058 -2.64503 6.5
    endloop
  endfacet
  facet normal -0.982287 -0.187382 0
    outer loop
      vertex -4.35862 -1.1191 0.5
      vertex -4.46452 -0.563999 6.5
      vertex -4.46452 -0.563999 0.5
    endloop
  endfacet
  facet normal -0.982287 -0.187382 0
    outer loop
      vertex -4.46452 -0.563999 6.5
      vertex -4.35862 -1.1191 0.5
      vertex -4.35862 -1.1191 6.5
    endloop
  endfacet
  facet normal 0.248689 -0.968583 0
    outer loop
      vertex 0.843215 -4.42029 0.5
      vertex 1.39058 -4.27975 6.5
      vertex 0.843215 -4.42029 6.5
    endloop
  endfacet
  facet normal 0.248689 -0.968583 0
    outer loop
      vertex 1.39058 -4.27975 6.5
      vertex 0.843215 -4.42029 0.5
      vertex 1.39058 -4.27975 0.5
    endloop
  endfacet
  facet normal -0.481754 -0.876307 0
    outer loop
      vertex -2.41122 -3.79947 0.5
      vertex -1.91601 -4.07172 6.5
      vertex -2.41122 -3.79947 6.5
    endloop
  endfacet
  facet normal -0.481754 -0.876307 -0
    outer loop
      vertex -1.91601 -4.07172 6.5
      vertex -2.41122 -3.79947 0.5
      vertex -1.91601 -4.07172 0.5
    endloop
  endfacet
  facet normal -0.587785 -0.809017 0
    outer loop
      vertex -2.86841 -3.46731 0.5
      vertex -2.41122 -3.79947 6.5
      vertex -2.86841 -3.46731 6.5
    endloop
  endfacet
  facet normal -0.587785 -0.809017 -0
    outer loop
      vertex -2.41122 -3.79947 6.5
      vertex -2.86841 -3.46731 0.5
      vertex -2.41122 -3.79947 0.5
    endloop
  endfacet
  facet normal -0.368125 -0.929776 0
    outer loop
      vertex -1.91601 -4.07172 0.5
      vertex -1.39058 -4.27975 6.5
      vertex -1.91601 -4.07172 6.5
    endloop
  endfacet
  facet normal -0.368125 -0.929776 -0
    outer loop
      vertex -1.39058 -4.27975 6.5
      vertex -1.91601 -4.07172 0.5
      vertex -1.39058 -4.27975 0.5
    endloop
  endfacet
endsolid OpenSCAD_Model
